<?xml version="1.0" encoding="UTF-8" standalone="no"?>
<svg
   viewBox="0 0 36 36"
   version="1.1"
   id="svg840"
   sodipodi:docname="table.svg"
   inkscape:version="1.1.1 (3bf5ae0d25, 2021-09-20)"
   xmlns:inkscape="http://www.inkscape.org/namespaces/inkscape"
   xmlns:sodipodi="http://sodipodi.sourceforge.net/DTD/sodipodi-0.dtd"
   xmlns="http://www.w3.org/2000/svg"
   xmlns:svg="http://www.w3.org/2000/svg">
  <defs
     id="defs844" />
  <sodipodi:namedview
     id="namedview842"
     pagecolor="#ffffff"
     bordercolor="#666666"
     borderopacity="1.0"
     inkscape:pageshadow="2"
     inkscape:pageopacity="0.0"
     inkscape:pagecheckerboard="0"
     showgrid="false"
     inkscape:zoom="19.138889"
     inkscape:cx="18"
     inkscape:cy="18"
     inkscape:window-width="1920"
     inkscape:window-height="991"
     inkscape:window-x="-9"
     inkscape:window-y="-9"
     inkscape:window-maximized="1"
     inkscape:current-layer="svg840" />
  <path
     fill="#a4523a"
     d="m 11.477503,8.7140785 c -1.1,0 -1.9999993,0.9 -1.9999993,2.0000005 v 18 c 0,1.1 0.8999993,2 1.9999993,2 1.1,0 2,-0.9 2,-2 v -18 c 0,-1.1000005 -0.9,-2.0000005 -2,-2.0000005 z m 18,0 c -1.1,0 -2,0.9 -2,2.0000005 v 18 c 0,1.1 0.9,2 2,2 1.1,0 2,-0.9 2,-2 v -18 c 0,-1.1000005 -0.9,-2.0000005 -2,-2.0000005 z"
     id="path824"
     sodipodi:nodetypes="ssssssssssssss" />
  <path
     fill="#c1694f"
     d="m 6.4775037,11.714079 c -1.1,0 -2,0.9 -2,2 v 17 c 0,1.1 0.9,2 2,2 1.1,0 2,-0.9 2,-2 v -17 c 0,-1.1 -0.9,-2 -2,-2 z"
     id="path828"
     sodipodi:nodetypes="sssssss" />
  <path
     fill="#c1694f"
     d="m 22.477503,11.714079 v 19 c 0,1.1 0.9,2 2,2 1.1,0 2,-0.9 2,-2 v -19 c -0.338207,-2.8356505 -3.93514,-2.1157145 -4,0 z"
     id="path830"
     sodipodi:nodetypes="cssscc" />
  <path
     fill="#d99e82"
     d="M 30.246503,8.7140785 H 9.8185036 c -0.2229999,0 -0.4419999,0.061 -0.6329999,0.175 l -5.954,3.0410005 c 0,0 22.7259993,2.418 24.7259993,2.418 l 3.029,-2.265 c 0.309,-0.232 0.491,-0.597 0.491,-0.985 V 9.9450785 c 0,-0.68 -0.551,-1.231 -1.231,-1.231 z"
     id="path834" />
  <path
     fill="#a4523a"
     d="m 4.4775037,14.714079 h 4 v 1 h -4 z m 17.9999993,0 h 4 v 1 h -4 z"
     id="path836"
     sodipodi:nodetypes="cccccccccc" />
  <path
     fill="#c1694f"
     d="M 26.917503,14.714079 H 4.0375037 c -0.862,0 -1.56,-0.672 -1.56,-1.5 0,-0.828 0.698,-1.5 1.56,-1.5 H 26.917503 c 0.862,0 1.56,0.672 1.56,1.5 0,0.828 -0.698,1.5 -1.56,1.5 z"
     id="path838" />
</svg>
